<?xml version="1.0" encoding="utf-8"?>
<!-- Generator: Adobe Illustrator 19.0.0, SVG Export Plug-In . SVG Version: 6.00 Build 0)  -->
<svg version="1.1" id="Capa_1" xmlns="http://www.w3.org/2000/svg" xmlns:xlink="http://www.w3.org/1999/xlink" x="0px" y="0px"
	 viewBox="-399 298 710.9 141" style="enable-background:new -399 298 710.9 141;" xml:space="preserve">
<style type="text/css">
	.st0{fill:#0778BE;}
	.st1{fill:none;}
	.st2{fill:#FFFFFF;}
	.st3{fill:#ED1C24;}
	.st4{fill:#818286;}
</style>
<g id="XMLID_1_">
	<path id="XMLID_265_" class="st0" d="M234.8,370.4c0-13.7,0-27.3,0-41c0-10.3,6.8-17.2,17.2-17.3c9.7-0.1,19.3-0.2,29,0
		c9.6,0.1,16.7,7.1,16.7,16.8c0.1,27.6,0.1,55.3,0,82.9c0,10.4-7,17-17.4,17c-9.3,0-18.6,0-28,0c-10.7-0.1-17.5-6.8-17.5-17.4
		C234.8,397.7,234.8,384,234.8,370.4z M262.9,369.4c0,12.5,0,25,0,37.5c0,2.6-0.1,5.5,3.4,5.4c3.3-0.1,3.4-2.9,3.4-5.6
		c0-24.8,0-49.6,0-74.4c0-2.6,0.1-5.3-3.6-5.3c-3.9,0-3.3,3-3.3,5.5C262.9,344.8,262.9,357.1,262.9,369.4z"/>
	<path id="XMLID_268_" class="st0" d="M-350.3,391.2c9.3,0,19.3-0.1,29.2-0.1c0,8.2,0.5,16.4-0.2,24.4c-0.6,7.5-7.5,13-15.3,13.2
		c-11.7,0.2-23.3,0.2-35,0.1c-9.3-0.1-15.5-6.6-15.6-15.9c-0.1-28.3-0.1-56.6,0-84.9c0-8.9,6.2-15.6,15.2-15.8
		c11.8-0.3,23.6-0.3,35.5,0c8.2,0.2,15.2,6.4,15.3,14.3c0.3,17.6,0.1,35.3,0.1,53.7c-12.2,0-23.8,0-35.9,0c0,10.2,0,23.7,0,29.7
		c0,2,1.6,2.9,3.5,2.8s3-1.5,3-3.4 M-356.9,346c0,4.8,0,9.7,0,14.5c0,2.1,0.1,4.2,2.9,4.3c3.1,0.1,3.5-1.9,3.5-4.3
		c0-9.8,0-19.6,0-29.5c0-2.3-0.5-4-3.2-4c-2.7,0-3.2,1.8-3.2,4C-356.9,336-356.9,341-356.9,346z"/>
</g>
<polygon id="XMLID_12_" class="st0" points="-314.8,311.9 -314.8,393.9 -266.3,393.9 -266.3,378.8 -286.3,378.8 -286.3,311.9 "/>
<path id="XMLID_16_" class="st0" d="M-150.3,393.9h-28.3v-64c0,0-2.5-4.3-6.8,0v64h-27.3v-64.1c0,0-3.3-3.8-6.8,0V394h-28.3v-81.9
	h26.7v5.8c0,0,17.5-15,32.2,1.8c0,0,7.4-6.1,16.1-7.1c8.2-1,21.4,3.9,22.8,17.2"/>
<polygon id="XMLID_20_" class="st0" points="-80.3,394.2 -58.3,357.2 -79.4,312.2 -49.7,312.2 -42,328.3 -32.1,312.2 -11.7,312.2 
	-32.4,348.1 -10.5,394.2 -40.6,394.2 -48.9,376.4 -59.3,394.2 "/>
<rect id="XMLID_21_" x="-6.4" y="311.9" class="st0" width="29.2" height="82.2"/>
<path id="XMLID_25_" class="st1" d="M68.9,352"/>
<path id="XMLID_6_" class="st0" d="M80.2,311.9c0,0,11.7,0,10.2,14.2v16.3H62.8v-14c0,0-1.8-4.8-6.5,0v47.2c0,0,3.5,4.8,6.4,0v-12.7
	h27.8v19.4c0,0-2.1,10.5-12.8,10.9H40.3c0,0-11-1.8-11.9-14.2v-53.8c0,0,0.6-12.6,15.4-13.2h36.4V311.9z"/>
<path id="XMLID_9_" class="st0" d="M144.4,311.7c0,0,14.3,1.1,15.5,13.5V394h-28.1v-2.5c0,0-23.7,14.5-33-3.8c0,0-7.8-22.8,1.2-32.5
	c0,0,7.8-12,31.7-8.7v-16.7c0,0-0.3-2.3-3.3-2.1c-1,0-3.5,0.5-3.6,2.1v13.4H96.9v-17.7c0,0,0.7-11.7,16-13.8H144.4z"/>
<path id="XMLID_11_" class="st2" d="M124.9,359.9c0,0,0-1.9,3.1-2.1c0.9-0.1,3.1,0.5,3.1,2.1v17.4c0,0,0,1.9-2.7,2.1
	c-0.9,0.1-3.5-0.2-3.6-2.1v-17.4H124.9z"/>
<path id="XMLID_19_" class="st2" d="M240.6,315.8"/>
<path id="XMLID_69_" class="st3" d="M-138.6,311.8"/>
<path id="XMLID_53_" class="st0" d="M-144.3,324.4c0,0,3.3-11.4,12.4-12.6h38.4c0,0,9.7,1.1,12.6,12.6v33.4h-35.4v18.8
	c0,0,0.3,1.9,3.6,1.9c0,0,2.6,0.1,3.2-1.7v-13.5H-81v19.2c0,0-1.6,9.8-12.6,11.4h-38.5c0,0-9.8-0.8-12.3-11.4L-144.3,324.4
	L-144.3,324.4z"/>
<path id="XMLID_14_" class="st2" d="M-115.2,329c0,0,0-1.9,3.1-2.1c0.9-0.1,3.1,0.5,3.1,2.1v17.4c0,0,0,1.9-2.7,2.1
	c-0.9,0.1-3.5-0.2-3.6-2.1V329H-115.2z"/>
<path id="XMLID_46_" class="st0" d="M165.8,393.9v-81.4h29.1v2.4c0,0,30.4-14.4,33.9,15v64H200v-65.4c0,0-0.8-2.3-3.1-2.3
	c0,0-2.4,0.4-3,2.4v65.2h-28.1V393.9z"/>
<g id="XMLID_101_">
	<path id="XMLID_102_" class="st4" d="M-240,420.1v-1.4h8v1.4c-0.6,0.1-1.1,0.3-1.3,0.6c-0.2,0.3-0.3,0.8-0.3,1.6v3.6
		c-0.3,0-0.5,0-0.7,0c-0.8,0-2.2,0.2-4.2,0.6c-1.4,0.3-2.6,0.5-3.6,0.5c-2.6,0-4.7-0.9-6.3-2.6s-2.4-3.8-2.4-6.1
		c0-2.5,0.8-4.6,2.5-6.4c1.7-1.8,3.8-2.7,6.3-2.7c2,0,3.8,0.7,5.4,2c0.3-0.6,0.4-1.2,0.5-1.8h1.4l0.2,6h-1.4
		c-0.9-2.9-2.6-4.4-5.1-4.4c-1.5,0-2.6,0.6-3.4,1.7c-0.8,1.1-1.2,3-1.2,5.6c0,1.8,0.1,3.2,0.3,4.2s0.7,1.7,1.3,2.2
		c0.7,0.5,1.5,0.8,2.6,0.8c0.9,0,1.7-0.2,2.3-0.6c0.6-0.4,0.9-1.2,0.9-2.4v-0.6C-238,420.8-238.6,420.2-240,420.1z"/>
	<path id="XMLID_104_" class="st4" d="M-219.9,419.1v4.1c0,0.8,0.1,1.3,0.4,1.6s0.8,0.5,1.7,0.5h0.3v1.4h-9.2v-1.4h0.3
		c0.9,0,1.4-0.2,1.7-0.5c0.3-0.3,0.4-0.9,0.4-1.6V413c0-0.8-0.1-1.3-0.4-1.6c-0.3-0.3-0.8-0.5-1.7-0.5h-0.3v-1.4h6.9h1.5
		c1.5,0,2.6,0.1,3.3,0.2s1.4,0.3,2.1,0.7c0.7,0.4,1.2,0.9,1.6,1.6c0.4,0.7,0.6,1.4,0.6,2.1c0,2-1.2,3.4-3.5,4.2
		c0.6,0.4,1.6,1.6,2.9,3.6c1,1.6,1.7,2.5,2.2,2.9c0.5,0.4,0.9,0.5,1.4,0.5v1.4h-5.4c-0.5-0.6-1.4-2.1-2.7-4.4
		c-0.7-1.2-1.1-2-1.4-2.3c-0.3-0.3-0.5-0.6-0.8-0.7C-218.3,419.2-218.9,419.1-219.9,419.1z M-219.9,417.6c1.4,0,2.4-0.1,2.9-0.3
		s0.9-0.5,1.2-1s0.4-1.2,0.4-2c0-1.2-0.3-2-0.9-2.5c-0.6-0.5-1.5-0.7-2.9-0.7c-0.2,0-0.4,0-0.7,0V417.6z"/>
	<path id="XMLID_107_" class="st4" d="M-199.6,422l-0.3,0.8c-0.2,0.6-0.4,1-0.4,1.3c0,0.4,0.1,0.7,0.4,0.9c0.3,0.2,0.7,0.2,1.4,0.2
		v1.4h-5.7v-1.4c1.1,0,2-0.9,2.7-2.8l5.3-13.3h1.5l5.4,13.3c0.5,1.3,1,2.1,1.4,2.4c0.4,0.3,0.8,0.4,1.2,0.4v1.4h-8.5v-1.4
		c0.8,0,1.2-0.1,1.4-0.2s0.3-0.3,0.3-0.6c0-0.2-0.1-0.5-0.2-0.8l-0.2-0.4l-0.5-1.3h-5.2V422z M-199.1,420.6h4.2l-2.1-5.1
		L-199.1,420.6z"/>
	<path id="XMLID_110_" class="st4" d="M-178.4,414.4v7.9c0,1.3,0.2,2.1,0.7,2.4c0.5,0.4,1,0.5,1.8,0.5v1.4h-6.4v-1.4
		c0.5,0,1-0.1,1.4-0.4c0.4-0.3,0.7-0.6,0.8-0.9c0.1-0.3,0.2-0.9,0.2-1.7v-8.7c0-1.7-0.8-2.6-2.5-2.6v-1.4h5.8l9.4,10.5v-6.3
		c0-1.9-0.8-2.8-2.4-2.8v-1.4h6.2v1.4c-0.4,0-0.8,0.1-1.2,0.4c-0.4,0.3-0.6,0.5-0.8,0.9c-0.1,0.4-0.2,0.9-0.2,1.6V427h-1.6
		L-178.4,414.4z"/>
	<path id="XMLID_112_" class="st4" d="M-147.2,426.7v-1.4c0.9,0,1.5-0.1,1.8-0.4c0.3-0.3,0.4-0.8,0.4-1.7V413c0-0.8-0.1-1.4-0.4-1.7
		c-0.3-0.3-0.9-0.4-1.8-0.4v-1.4l2.1-0.1c2.1-0.1,3.7-0.1,4.9-0.1c2,0,3.6,0.1,4.8,0.3c1.2,0.2,2.4,0.7,3.5,1.5
		c1.1,0.8,1.9,1.8,2.5,3c0.6,1.2,0.9,2.6,0.9,4.1s-0.3,2.9-0.9,4c-0.6,1.2-1.5,2.1-2.5,2.8s-2.2,1.1-3.3,1.3
		c-1.1,0.2-3.1,0.3-5.7,0.3L-147.2,426.7L-147.2,426.7z M-140.5,410.9v11.8c0,0.8,0,1.3,0.1,1.5c0.1,0.3,0.3,0.5,0.6,0.7
		c0.3,0.2,0.8,0.3,1.4,0.3c1.6,0,2.8-0.6,3.6-1.7c0.8-1.2,1.2-2.9,1.2-5.2c0-1.9-0.3-3.4-0.9-4.5c-0.6-1.1-1.3-1.9-2.3-2.3
		C-137.7,411.1-139,410.9-140.5,410.9z"/>
	<path id="XMLID_115_" class="st4" d="M-122.4,410.9v-1.4h9.1v1.4h-0.3c-0.9,0-1.4,0.2-1.7,0.5c-0.3,0.3-0.4,0.9-0.4,1.6v10.1
		c0,0.8,0.1,1.3,0.4,1.6c0.3,0.3,0.8,0.5,1.6,0.5h0.3v1.4h-9.1v-1.4c0.9,0,1.5-0.1,1.8-0.4c0.3-0.3,0.4-0.8,0.4-1.7V413
		c0-0.8-0.1-1.4-0.4-1.7C-120.8,411.1-121.4,410.9-122.4,410.9z"/>
	<path id="XMLID_117_" class="st4" d="M-104.4,422l-0.3,0.8c-0.2,0.6-0.4,1-0.4,1.3c0,0.4,0.1,0.7,0.4,0.9c0.3,0.2,0.7,0.2,1.4,0.2
		v1.4h-5.7v-1.4c1.1,0,2-0.9,2.7-2.8l5.3-13.3h1.5l5.4,13.3c0.5,1.3,1,2.1,1.4,2.4c0.4,0.3,0.8,0.4,1.2,0.4v1.4h-8.5v-1.4
		c0.8,0,1.2-0.1,1.4-0.2c0.2-0.1,0.3-0.3,0.3-0.6c0-0.2-0.1-0.5-0.2-0.8l-0.2-0.4l-0.5-1.3h-5.2V422z M-103.8,420.6h4.2l-2.1-5.1
		L-103.8,420.6z"/>
	<path id="XMLID_120_" class="st4" d="M-80.4,419.1v4.1c0,0.8,0.1,1.3,0.4,1.6s0.8,0.5,1.7,0.5h0.3v1.4h-9.2v-1.4h0.3
		c0.9,0,1.4-0.2,1.7-0.5c0.3-0.3,0.4-0.9,0.4-1.6V413c0-0.8-0.1-1.3-0.4-1.6c-0.3-0.3-0.8-0.5-1.7-0.5h-0.3v-1.4h6.9h1.5
		c1.5,0,2.6,0.1,3.3,0.2c0.7,0.1,1.4,0.3,2.1,0.7s1.2,0.9,1.6,1.6c0.4,0.7,0.6,1.4,0.6,2.1c0,2-1.2,3.4-3.5,4.2
		c0.6,0.4,1.6,1.6,2.9,3.6c1,1.6,1.7,2.5,2.2,2.9c0.5,0.4,0.9,0.5,1.4,0.5v1.4h-5.4c-0.5-0.6-1.4-2.1-2.7-4.4
		c-0.7-1.2-1.1-2-1.4-2.3c-0.3-0.3-0.5-0.6-0.8-0.7C-78.8,419.2-79.4,419.1-80.4,419.1z M-80.4,417.6c1.4,0,2.4-0.1,2.9-0.3
		s0.9-0.5,1.2-1c0.3-0.5,0.4-1.2,0.4-2c0-1.2-0.3-2-0.9-2.5s-1.5-0.7-2.9-0.7c-0.2,0-0.4,0-0.7,0V417.6z"/>
	<path id="XMLID_123_" class="st4" d="M-63.5,410.9v-1.4h9.1v1.4h-0.3c-0.9,0-1.4,0.2-1.7,0.5c-0.3,0.3-0.4,0.9-0.4,1.6v10.1
		c0,0.8,0.1,1.3,0.4,1.6s0.8,0.5,1.6,0.5h0.3v1.4h-9.1v-1.4c0.9,0,1.5-0.1,1.8-0.4c0.3-0.3,0.4-0.8,0.4-1.7V413
		c0-0.8-0.1-1.4-0.4-1.7C-61.9,411.1-62.6,410.9-63.5,410.9z"/>
	<path id="XMLID_125_" class="st4" d="M-48.3,418c0-1.5,0.4-3,1.3-4.5s2-2.6,3.5-3.3s3-1.1,4.7-1.1c3,0,5.4,0.9,7.1,2.6
		c1.7,1.7,2.6,3.9,2.6,6.4c0,2.4-0.9,4.5-2.6,6.2c-1.7,1.7-4,2.6-7,2.6c-2,0-3.8-0.4-5.3-1.3c-1.5-0.9-2.6-2-3.3-3.4
		S-48.3,419.4-48.3,418z M-43,417.9c0,2.6,0.4,4.5,1.1,5.7c0.7,1.2,1.8,1.8,3.2,1.8c1.5,0,2.6-0.5,3.3-1.6c0.7-1.1,1.1-2.9,1.1-5.6
		c0-2.4-0.3-4.3-1-5.5c-0.7-1.2-1.8-1.8-3.3-1.8c-1.4,0-2.5,0.6-3.2,1.7C-42.7,413.7-43,415.5-43,417.9z"/>
	<path id="XMLID_128_" class="st4" d="M-5.7,419.1v4.1c0,0.8,0.1,1.3,0.4,1.6s0.8,0.5,1.7,0.5h0.3v1.4h-9.2v-1.4h0.3
		c0.9,0,1.4-0.2,1.7-0.5c0.3-0.3,0.4-0.9,0.4-1.6V413c0-0.8-0.1-1.3-0.4-1.6s-0.8-0.5-1.7-0.5h-0.3v-1.4h6.9h1.5
		c1.5,0,2.6,0.1,3.3,0.2c0.7,0.1,1.4,0.3,2.1,0.7s1.2,0.9,1.6,1.6c0.4,0.7,0.6,1.4,0.6,2.1c0,2-1.2,3.4-3.5,4.2
		c0.6,0.4,1.6,1.6,2.9,3.6c1,1.6,1.7,2.5,2.2,2.9c0.5,0.4,0.9,0.5,1.4,0.5v1.4H1.1c-0.5-0.6-1.4-2.1-2.7-4.4c-0.7-1.2-1.1-2-1.4-2.3
		c-0.3-0.3-0.5-0.6-0.8-0.7C-4.1,419.2-4.8,419.1-5.7,419.1z M-5.7,417.6c1.4,0,2.4-0.1,2.9-0.3s0.9-0.5,1.2-1
		c0.3-0.5,0.4-1.2,0.4-2c0-1.2-0.3-2-0.9-2.5s-1.5-0.7-2.9-0.7c-0.2,0-0.4,0-0.7,0V417.6z"/>
	<path id="XMLID_131_" class="st4" d="M17.9,418.5v4.2c0,0.8,0,1.3,0.1,1.6c0.1,0.2,0.3,0.5,0.7,0.6c0.4,0.2,1,0.2,1.8,0.2
		c1.1,0,1.9-0.1,2.5-0.4c0.5-0.3,1-0.8,1.4-1.5c0.4-0.7,0.7-1.4,0.9-2.2h1.4l-0.1,5.6H11v-1.4h0.3c0.9,0,1.4-0.2,1.7-0.5
		c0.3-0.3,0.4-0.9,0.4-1.6V413c0-0.8-0.1-1.3-0.4-1.6s-0.8-0.5-1.6-0.5H11v-1.4h14.6l0.3,4.4h-1.4c-0.3-0.8-0.5-1.4-0.8-1.9
		s-0.6-0.8-0.9-0.9c-0.3-0.1-0.8-0.2-1.6-0.2H18v5.9h1.6c0.8,0,1.3-0.1,1.5-0.4c0.2-0.3,0.4-0.9,0.4-1.7h1.4v5.8h-1.4
		c0-0.1,0-0.2,0-0.2c0-0.5-0.1-0.9-0.3-1.3c-0.2-0.4-0.7-0.6-1.6-0.6h-1.7V418.5z"/>
	<path id="XMLID_133_" class="st4" d="M43.8,420.1v-1.4h8v1.4c-0.6,0.1-1.1,0.3-1.3,0.6c-0.2,0.3-0.3,0.8-0.3,1.6v3.6
		c-0.3,0-0.5,0-0.7,0c-0.8,0-2.2,0.2-4.2,0.6c-1.4,0.3-2.6,0.5-3.6,0.5c-2.6,0-4.7-0.9-6.3-2.6c-1.6-1.7-2.4-3.8-2.4-6.1
		c0-2.5,0.8-4.6,2.5-6.4c1.7-1.8,3.8-2.7,6.3-2.7c2,0,3.8,0.7,5.4,2c0.3-0.6,0.4-1.2,0.5-1.8h1.4l0.2,6H48c-0.9-2.9-2.6-4.4-5.1-4.4
		c-1.5,0-2.6,0.6-3.4,1.7s-1.2,3-1.2,5.6c0,1.8,0.1,3.2,0.3,4.2c0.2,1,0.7,1.7,1.3,2.2c0.7,0.5,1.5,0.8,2.6,0.8
		c0.9,0,1.7-0.2,2.3-0.6c0.6-0.4,0.9-1.2,0.9-2.4v-0.6C45.8,420.8,45.1,420.2,43.8,420.1z"/>
	<path id="XMLID_135_" class="st4" d="M57.2,410.9v-1.4h9.1v1.4H66c-0.9,0-1.4,0.2-1.7,0.5c-0.3,0.3-0.4,0.9-0.4,1.6v10.1
		c0,0.8,0.1,1.3,0.4,1.6s0.8,0.5,1.6,0.5h0.3v1.4h-9.1v-1.4c0.9,0,1.5-0.1,1.8-0.4c0.3-0.3,0.4-0.8,0.4-1.7V413
		c0-0.8-0.1-1.4-0.4-1.7S58.2,410.9,57.2,410.9z"/>
	<path id="XMLID_137_" class="st4" d="M72.4,418c0-1.5,0.4-3,1.3-4.5s2-2.6,3.5-3.3s3-1.1,4.7-1.1c3,0,5.4,0.9,7.1,2.6
		c1.7,1.7,2.6,3.9,2.6,6.4c0,2.4-0.9,4.5-2.6,6.2c-1.7,1.7-4,2.6-7,2.6c-2,0-3.8-0.4-5.3-1.3c-1.5-0.9-2.6-2-3.3-3.4
		S72.4,419.4,72.4,418z M77.7,417.9c0,2.6,0.4,4.5,1.1,5.7c0.7,1.2,1.8,1.8,3.2,1.8c1.5,0,2.6-0.5,3.3-1.6c0.7-1.1,1.1-2.9,1.1-5.6
		c0-2.4-0.3-4.3-1-5.5c-0.7-1.2-1.8-1.8-3.3-1.8c-1.4,0-2.5,0.6-3.2,1.7C78.1,413.7,77.7,415.5,77.7,417.9z"/>
	<path id="XMLID_140_" class="st4" d="M101.6,414.4v7.9c0,1.3,0.2,2.1,0.7,2.4c0.5,0.4,1,0.5,1.8,0.5v1.4h-6.4v-1.4
		c0.5,0,1-0.1,1.4-0.4c0.4-0.3,0.7-0.6,0.8-0.9c0.1-0.3,0.2-0.9,0.2-1.7v-8.7c0-1.7-0.8-2.6-2.5-2.6v-1.4h5.8l9.4,10.5v-6.3
		c0-1.9-0.8-2.8-2.4-2.8v-1.4h6.2v1.4c-0.4,0-0.8,0.1-1.2,0.4c-0.4,0.3-0.6,0.5-0.8,0.9c-0.1,0.4-0.2,0.9-0.2,1.6V427h-1.6
		L101.6,414.4z"/>
	<path id="XMLID_142_" class="st4" d="M124.7,422l-0.3,0.8c-0.2,0.6-0.4,1-0.4,1.3c0,0.4,0.1,0.7,0.4,0.9c0.3,0.2,0.7,0.2,1.4,0.2
		v1.4h-5.7v-1.4c1.1,0,2-0.9,2.7-2.8l5.3-13.3h1.5l5.4,13.3c0.5,1.3,1,2.1,1.4,2.4c0.4,0.3,0.8,0.4,1.2,0.4v1.4h-8.5v-1.4
		c0.8,0,1.2-0.1,1.4-0.2s0.3-0.3,0.3-0.6c0-0.2-0.1-0.5-0.2-0.8l-0.2-0.4L130,422H124.7z M125.2,420.6h4.2l-2.1-5.1L125.2,420.6z"/>
	<path id="XMLID_145_" class="st4" d="M157.5,421l-0.1,5.7h-15.6v-1.4h0.3c0.9,0,1.4-0.2,1.7-0.5c0.3-0.3,0.4-0.9,0.4-1.6V413
		c0-0.8-0.1-1.3-0.4-1.6s-0.8-0.5-1.7-0.5h-0.3v-1.4h9.2v1.4h-0.3c-0.9,0-1.4,0.2-1.7,0.5c-0.3,0.3-0.4,0.9-0.4,1.6v9.8
		c0,0.7,0,1.2,0.1,1.5c0.1,0.2,0.3,0.4,0.7,0.6c0.4,0.2,1,0.3,1.9,0.3c1.5,0,2.6-0.4,3.4-1.1c0.7-0.8,1.2-1.8,1.5-3h1.3V421z"/>
</g>
</svg>
