<?xml version="1.0" encoding="utf-8"?>
<!-- Generator: Adobe Illustrator 19.0.0, SVG Export Plug-In . SVG Version: 6.00 Build 0)  -->
<svg version="1.1" id="Capa_1" xmlns="http://www.w3.org/2000/svg" xmlns:xlink="http://www.w3.org/1999/xlink" x="0px" y="0px"
	 viewBox="-399 298 710.9 141" style="enable-background:new -399 298 710.9 141;" xml:space="preserve">
<style type="text/css">
	.st0{fill:#008FEA;}
	.st1{fill:none;}
	.st2{fill:#FFFFFF;}
	.st3{fill:#818286;}
</style>
<g id="XMLID_1_">
	<path id="XMLID_265_" class="st0" d="M235.3,368.8c0-13.7,0-27.3,0-41c0-10.3,6.8-17.2,17.2-17.3c9.7-0.1,19.3-0.2,29,0
		c9.6,0.1,16.7,7.1,16.7,16.8c0.1,27.6,0.1,55.3,0,82.9c0,10.4-7,17-17.4,17c-9.3,0-18.6,0-28,0c-10.7-0.1-17.5-6.8-17.5-17.4
		C235.3,396.1,235.3,382.4,235.3,368.8z M263.4,367.8c0,12.5,0,25,0,37.5c0,2.6-0.1,5.5,3.4,5.4c3.3-0.1,3.4-2.9,3.4-5.6
		c0-24.8,0-49.6,0-74.4c0-2.6,0.1-5.3-3.6-5.3c-3.9,0-3.3,3-3.3,5.5C263.4,343.2,263.4,355.5,263.4,367.8z"/>
	<path id="XMLID_268_" class="st0" d="M-349.8,389.6c9.3,0,19.3-0.1,29.2-0.1c0,8.2,0.5,16.4-0.2,24.4c-0.6,7.5-7.5,13-15.3,13.2
		c-11.7,0.2-23.3,0.2-35,0.1c-9.3-0.1-15.5-6.6-15.6-15.9c-0.1-28.3-0.1-56.6,0-84.9c0-8.9,6.2-15.6,15.2-15.8
		c11.8-0.3,23.6-0.3,35.5,0c8.2,0.2,15.2,6.4,15.3,14.3c0.3,17.6,0.1,35.3,0.1,53.7c-12.2,0-23.8,0-35.9,0c0,10.2,0,23.7,0,29.7
		c0,2,1.6,2.9,3.5,2.8s3-1.5,3-3.4 M-356.4,344.4c0,4.8,0,9.7,0,14.5c0,2.1,0.1,4.2,2.9,4.3c3.1,0.1,3.5-1.9,3.5-4.3
		c0-9.8,0-19.6,0-29.5c0-2.3-0.5-4-3.2-4s-3.2,1.8-3.2,4C-356.4,334.4-356.4,339.4-356.4,344.4z"/>
</g>
<polygon id="XMLID_12_" class="st0" points="-314.3,310.3 -314.3,392.3 -265.8,392.3 -265.8,377.2 -285.8,377.2 -285.8,310.3 "/>
<path id="XMLID_16_" class="st0" d="M-149.8,392.3h-28.3v-64c0,0-2.5-4.3-6.8,0v64h-27.3v-64.1c0,0-3.3-3.8-6.8,0v64.2h-28.3v-81.9
	h26.7v5.8c0,0,17.5-15,32.2,1.8c0,0,7.4-6.1,16.1-7.1c8.2-1,21.4,3.9,22.8,17.2"/>
<polygon id="XMLID_20_" class="st0" points="-79.8,392.6 -57.8,355.6 -78.9,310.6 -49.2,310.6 -41.5,326.7 -31.6,310.6 -11.2,310.6 
	-31.9,346.5 -10,392.6 -40.1,392.6 -48.4,374.8 -58.8,392.6 "/>
<rect id="XMLID_21_" x="-5.9" y="310.3" class="st0" width="29.2" height="82.2"/>
<path id="XMLID_25_" class="st1" d="M69.4,350.4"/>
<path id="XMLID_6_" class="st0" d="M80.7,310.3c0,0,11.7,0,10.2,14.2v16.3H63.3v-14c0,0-1.8-4.8-6.5,0V374c0,0,3.5,4.8,6.4,0v-12.7
	H91v19.4c0,0-2.1,10.5-12.8,10.9H40.8c0,0-11-1.8-11.9-14.2v-53.8c0,0,0.6-12.6,15.4-13.2L80.7,310.3L80.7,310.3z"/>
<path id="XMLID_9_" class="st0" d="M144.9,310.1c0,0,14.3,1.1,15.5,13.5v68.8h-28.1v-2.5c0,0-23.7,14.5-33-3.8
	c0,0-7.8-22.8,1.2-32.5c0,0,7.8-12,31.7-8.7v-16.7c0,0-0.3-2.3-3.3-2.1c-1,0-3.5,0.5-3.6,2.1v13.4H97.4v-17.7c0,0,0.7-11.7,16-13.8
	L144.9,310.1L144.9,310.1z"/>
<path id="XMLID_11_" class="st2" d="M125.4,358.3c0,0,0-1.9,3.1-2.1c0.9-0.1,3.1,0.5,3.1,2.1v17.4c0,0,0,1.9-2.7,2.1
	c-0.9,0.1-3.5-0.2-3.6-2.1L125.4,358.3L125.4,358.3z"/>
<path id="XMLID_19_" class="st0" d="M241.1,314.2"/>
<path id="XMLID_69_" class="st0" d="M-138.1,310.2"/>
<path id="XMLID_53_" class="st0" d="M-143.8,322.8c0,0,3.3-11.4,12.4-12.6H-93c0,0,9.7,1.1,12.6,12.6v33.4h-35.4V375
	c0,0,0.3,1.9,3.6,1.9c0,0,2.6,0.1,3.2-1.7v-13.5h28.5v19.2c0,0-1.6,9.8-12.6,11.4h-38.5c0,0-9.8-0.8-12.3-11.4L-143.8,322.8
	L-143.8,322.8z"/>
<path id="XMLID_14_" class="st2" d="M-114.7,327.4c0,0,0-1.9,3.1-2.1c0.9-0.1,3.1,0.5,3.1,2.1v17.4c0,0,0,1.9-2.7,2.1
	c-0.9,0.1-3.5-0.2-3.6-2.1L-114.7,327.4L-114.7,327.4z"/>
<path id="XMLID_46_" class="st0" d="M166.3,392.3v-81.4h29.1v2.4c0,0,30.4-14.4,33.9,15v64h-28.8v-65.4c0,0-0.8-2.3-3.1-2.3
	c0,0-2.4,0.4-3,2.4v65.2h-28.1L166.3,392.3L166.3,392.3z"/>
<g id="XMLID_101_">
	<path id="XMLID_102_" class="st3" d="M-239.5,418.5v-1.4h8v1.4c-0.6,0.1-1.1,0.3-1.3,0.6c-0.2,0.3-0.3,0.8-0.3,1.6v3.6
		c-0.3,0-0.5,0-0.7,0c-0.8,0-2.2,0.2-4.2,0.6c-1.4,0.3-2.6,0.5-3.6,0.5c-2.6,0-4.7-0.9-6.3-2.6s-2.4-3.8-2.4-6.1
		c0-2.5,0.8-4.6,2.5-6.4s3.8-2.7,6.3-2.7c2,0,3.8,0.7,5.4,2c0.3-0.6,0.4-1.2,0.5-1.8h1.4l0.2,6h-1.4c-0.9-2.9-2.6-4.4-5.1-4.4
		c-1.5,0-2.6,0.6-3.4,1.7c-0.8,1.1-1.2,3-1.2,5.6c0,1.8,0.1,3.2,0.3,4.2s0.7,1.7,1.3,2.2c0.7,0.5,1.5,0.8,2.6,0.8
		c0.9,0,1.7-0.2,2.3-0.6s0.9-1.2,0.9-2.4v-0.6C-237.5,419.2-238.1,418.6-239.5,418.5z"/>
	<path id="XMLID_104_" class="st3" d="M-219.4,417.5v4.1c0,0.8,0.1,1.3,0.4,1.6s0.8,0.5,1.7,0.5h0.3v1.4h-9.2v-1.4h0.3
		c0.9,0,1.4-0.2,1.7-0.5s0.4-0.9,0.4-1.6v-10.2c0-0.8-0.1-1.3-0.4-1.6c-0.3-0.3-0.8-0.5-1.7-0.5h-0.3v-1.4h6.9h1.5
		c1.5,0,2.6,0.1,3.3,0.2s1.4,0.3,2.1,0.7c0.7,0.4,1.2,0.9,1.6,1.6c0.4,0.7,0.6,1.4,0.6,2.1c0,2-1.2,3.4-3.5,4.2
		c0.6,0.4,1.6,1.6,2.9,3.6c1,1.6,1.7,2.5,2.2,2.9s0.9,0.5,1.4,0.5v1.4h-5.4c-0.5-0.6-1.4-2.1-2.7-4.4c-0.7-1.2-1.1-2-1.4-2.3
		c-0.3-0.3-0.5-0.6-0.8-0.7C-217.8,417.6-218.4,417.5-219.4,417.5z M-219.4,416c1.4,0,2.4-0.1,2.9-0.3s0.9-0.5,1.2-1s0.4-1.2,0.4-2
		c0-1.2-0.3-2-0.9-2.5c-0.6-0.5-1.5-0.7-2.9-0.7c-0.2,0-0.4,0-0.7,0V416z"/>
	<path id="XMLID_107_" class="st3" d="M-199.1,420.4l-0.3,0.8c-0.2,0.6-0.4,1-0.4,1.3c0,0.4,0.1,0.7,0.4,0.9
		c0.3,0.2,0.7,0.2,1.4,0.2v1.4h-5.7v-1.4c1.1,0,2-0.9,2.7-2.8l5.3-13.3h1.5l5.4,13.3c0.5,1.3,1,2.1,1.4,2.4s0.8,0.4,1.2,0.4v1.4
		h-8.5v-1.4c0.8,0,1.2-0.1,1.4-0.2s0.3-0.3,0.3-0.6c0-0.2-0.1-0.5-0.2-0.8l-0.2-0.4l-0.5-1.3h-5.2L-199.1,420.4L-199.1,420.4z
		 M-198.6,419h4.2l-2.1-5.1L-198.6,419z"/>
	<path id="XMLID_110_" class="st3" d="M-177.9,412.8v7.9c0,1.3,0.2,2.1,0.7,2.4c0.5,0.4,1,0.5,1.8,0.5v1.4h-6.4v-1.4
		c0.5,0,1-0.1,1.4-0.4s0.7-0.6,0.8-0.9s0.2-0.9,0.2-1.7v-8.7c0-1.7-0.8-2.6-2.5-2.6v-1.4h5.8l9.4,10.5v-6.3c0-1.9-0.8-2.8-2.4-2.8
		v-1.4h6.2v1.4c-0.4,0-0.8,0.1-1.2,0.4s-0.6,0.5-0.8,0.9c-0.1,0.4-0.2,0.9-0.2,1.6v13.2h-1.6L-177.9,412.8z"/>
	<path id="XMLID_112_" class="st3" d="M-146.7,425.1v-1.4c0.9,0,1.5-0.1,1.8-0.4s0.4-0.8,0.4-1.7v-10.2c0-0.8-0.1-1.4-0.4-1.7
		c-0.3-0.3-0.9-0.4-1.8-0.4v-1.4l2.1-0.1c2.1-0.1,3.7-0.1,4.9-0.1c2,0,3.6,0.1,4.8,0.3c1.2,0.2,2.4,0.7,3.5,1.5s1.9,1.8,2.5,3
		s0.9,2.6,0.9,4.1s-0.3,2.9-0.9,4c-0.6,1.2-1.5,2.1-2.5,2.8s-2.2,1.1-3.3,1.3c-1.1,0.2-3.1,0.3-5.7,0.3L-146.7,425.1L-146.7,425.1z
		 M-140,409.3v11.8c0,0.8,0,1.3,0.1,1.5c0.1,0.3,0.3,0.5,0.6,0.7s0.8,0.3,1.4,0.3c1.6,0,2.8-0.6,3.6-1.7c0.8-1.2,1.2-2.9,1.2-5.2
		c0-1.9-0.3-3.4-0.9-4.5c-0.6-1.1-1.3-1.9-2.3-2.3C-137.2,409.5-138.5,409.3-140,409.3z"/>
	<path id="XMLID_115_" class="st3" d="M-121.9,409.3v-1.4h9.1v1.4h-0.3c-0.9,0-1.4,0.2-1.7,0.5c-0.3,0.3-0.4,0.9-0.4,1.6v10.1
		c0,0.8,0.1,1.3,0.4,1.6c0.3,0.3,0.8,0.5,1.6,0.5h0.3v1.4h-9.1v-1.4c0.9,0,1.5-0.1,1.8-0.4s0.4-0.8,0.4-1.7v-10.1
		c0-0.8-0.1-1.4-0.4-1.7C-120.3,409.5-120.9,409.3-121.9,409.3z"/>
	<path id="XMLID_117_" class="st3" d="M-103.9,420.4l-0.3,0.8c-0.2,0.6-0.4,1-0.4,1.3c0,0.4,0.1,0.7,0.4,0.9
		c0.3,0.2,0.7,0.2,1.4,0.2v1.4h-5.7v-1.4c1.1,0,2-0.9,2.7-2.8l5.3-13.3h1.5l5.4,13.3c0.5,1.3,1,2.1,1.4,2.4s0.8,0.4,1.2,0.4v1.4
		h-8.5v-1.4c0.8,0,1.2-0.1,1.4-0.2c0.2-0.1,0.3-0.3,0.3-0.6c0-0.2-0.1-0.5-0.2-0.8l-0.2-0.4l-0.5-1.3h-5.2L-103.9,420.4
		L-103.9,420.4z M-103.3,419h4.2l-2.1-5.1L-103.3,419z"/>
	<path id="XMLID_120_" class="st3" d="M-79.9,417.5v4.1c0,0.8,0.1,1.3,0.4,1.6s0.8,0.5,1.7,0.5h0.3v1.4h-9.2v-1.4h0.3
		c0.9,0,1.4-0.2,1.7-0.5c0.3-0.3,0.4-0.9,0.4-1.6v-10.2c0-0.8-0.1-1.3-0.4-1.6c-0.3-0.3-0.8-0.5-1.7-0.5h-0.3v-1.4h6.9h1.5
		c1.5,0,2.6,0.1,3.3,0.2c0.7,0.1,1.4,0.3,2.1,0.7s1.2,0.9,1.6,1.6s0.6,1.4,0.6,2.1c0,2-1.2,3.4-3.5,4.2c0.6,0.4,1.6,1.6,2.9,3.6
		c1,1.6,1.7,2.5,2.2,2.9s0.9,0.5,1.4,0.5v1.4h-5.4c-0.5-0.6-1.4-2.1-2.7-4.4c-0.7-1.2-1.1-2-1.4-2.3s-0.5-0.6-0.8-0.7
		C-78.3,417.6-78.9,417.5-79.9,417.5z M-79.9,416c1.4,0,2.4-0.1,2.9-0.3s0.9-0.5,1.2-1c0.3-0.5,0.4-1.2,0.4-2c0-1.2-0.3-2-0.9-2.5
		s-1.5-0.7-2.9-0.7c-0.2,0-0.4,0-0.7,0V416z"/>
	<path id="XMLID_123_" class="st3" d="M-63,409.3v-1.4h9.1v1.4h-0.3c-0.9,0-1.4,0.2-1.7,0.5s-0.4,0.9-0.4,1.6v10.1
		c0,0.8,0.1,1.3,0.4,1.6s0.8,0.5,1.6,0.5h0.3v1.4h-9.1v-1.4c0.9,0,1.5-0.1,1.8-0.4s0.4-0.8,0.4-1.7v-10.1c0-0.8-0.1-1.4-0.4-1.7
		C-61.4,409.5-62.1,409.3-63,409.3z"/>
	<path id="XMLID_125_" class="st3" d="M-47.8,416.4c0-1.5,0.4-3,1.3-4.5s2-2.6,3.5-3.3s3-1.1,4.7-1.1c3,0,5.4,0.9,7.1,2.6
		c1.7,1.7,2.6,3.9,2.6,6.4c0,2.4-0.9,4.5-2.6,6.2c-1.7,1.7-4,2.6-7,2.6c-2,0-3.8-0.4-5.3-1.3s-2.6-2-3.3-3.4S-47.8,417.8-47.8,416.4
		z M-42.5,416.3c0,2.6,0.4,4.5,1.1,5.7c0.7,1.2,1.8,1.8,3.2,1.8c1.5,0,2.6-0.5,3.3-1.6s1.1-2.9,1.1-5.6c0-2.4-0.3-4.3-1-5.5
		s-1.8-1.8-3.3-1.8c-1.4,0-2.5,0.6-3.2,1.7C-42.2,412.1-42.5,413.9-42.5,416.3z"/>
	<path id="XMLID_128_" class="st3" d="M-5.2,417.5v4.1c0,0.8,0.1,1.3,0.4,1.6s0.8,0.5,1.7,0.5h0.3v1.4H-12v-1.4h0.3
		c0.9,0,1.4-0.2,1.7-0.5s0.4-0.9,0.4-1.6v-10.2c0-0.8-0.1-1.3-0.4-1.6s-0.8-0.5-1.7-0.5H-12v-1.4h6.9h1.5c1.5,0,2.6,0.1,3.3,0.2
		s1.4,0.3,2.1,0.7s1.2,0.9,1.6,1.6s0.6,1.4,0.6,2.1c0,2-1.2,3.4-3.5,4.2c0.6,0.4,1.6,1.6,2.9,3.6c1,1.6,1.7,2.5,2.2,2.9
		s0.9,0.5,1.4,0.5v1.4H1.6c-0.5-0.6-1.4-2.1-2.7-4.4c-0.7-1.2-1.1-2-1.4-2.3s-0.5-0.6-0.8-0.7C-3.6,417.6-4.3,417.5-5.2,417.5z
		 M-5.2,416c1.4,0,2.4-0.1,2.9-0.3s0.9-0.5,1.2-1s0.4-1.2,0.4-2c0-1.2-0.3-2-0.9-2.5s-1.5-0.7-2.9-0.7c-0.2,0-0.4,0-0.7,0V416z"/>
	<path id="XMLID_131_" class="st3" d="M18.4,416.9v4.2c0,0.8,0,1.3,0.1,1.6c0.1,0.2,0.3,0.5,0.7,0.6c0.4,0.2,1,0.2,1.8,0.2
		c1.1,0,1.9-0.1,2.5-0.4c0.5-0.3,1-0.8,1.4-1.5s0.7-1.4,0.9-2.2h1.4l-0.1,5.6H11.5v-1.4h0.3c0.9,0,1.4-0.2,1.7-0.5s0.4-0.9,0.4-1.6
		v-10.1c0-0.8-0.1-1.3-0.4-1.6s-0.8-0.5-1.6-0.5h-0.4v-1.4h14.6l0.3,4.4H25c-0.3-0.8-0.5-1.4-0.8-1.9s-0.6-0.8-0.9-0.9
		s-0.8-0.2-1.6-0.2h-3.2v5.9h1.6c0.8,0,1.3-0.1,1.5-0.4s0.4-0.9,0.4-1.7h1.4v5.8H22c0-0.1,0-0.2,0-0.2c0-0.5-0.1-0.9-0.3-1.3
		c-0.2-0.4-0.7-0.6-1.6-0.6h-1.7V416.9z"/>
	<path id="XMLID_133_" class="st3" d="M44.3,418.5v-1.4h8v1.4c-0.6,0.1-1.1,0.3-1.3,0.6c-0.2,0.3-0.3,0.8-0.3,1.6v3.6
		c-0.3,0-0.5,0-0.7,0c-0.8,0-2.2,0.2-4.2,0.6c-1.4,0.3-2.6,0.5-3.6,0.5c-2.6,0-4.7-0.9-6.3-2.6s-2.4-3.8-2.4-6.1
		c0-2.5,0.8-4.6,2.5-6.4s3.8-2.7,6.3-2.7c2,0,3.8,0.7,5.4,2c0.3-0.6,0.4-1.2,0.5-1.8h1.4l0.2,6h-1.3c-0.9-2.9-2.6-4.4-5.1-4.4
		c-1.5,0-2.6,0.6-3.4,1.7s-1.2,3-1.2,5.6c0,1.8,0.1,3.2,0.3,4.2s0.7,1.7,1.3,2.2c0.7,0.5,1.5,0.8,2.6,0.8c0.9,0,1.7-0.2,2.3-0.6
		s0.9-1.2,0.9-2.4v-0.6C46.3,419.2,45.6,418.6,44.3,418.5z"/>
	<path id="XMLID_135_" class="st3" d="M57.7,409.3v-1.4h9.1v1.4h-0.3c-0.9,0-1.4,0.2-1.7,0.5c-0.3,0.3-0.4,0.9-0.4,1.6v10.1
		c0,0.8,0.1,1.3,0.4,1.6s0.8,0.5,1.6,0.5h0.3v1.4h-9.1v-1.4c0.9,0,1.5-0.1,1.8-0.4s0.4-0.8,0.4-1.7v-10.1c0-0.8-0.1-1.4-0.4-1.7
		S58.7,409.3,57.7,409.3z"/>
	<path id="XMLID_137_" class="st3" d="M72.9,416.4c0-1.5,0.4-3,1.3-4.5s2-2.6,3.5-3.3s3-1.1,4.7-1.1c3,0,5.4,0.9,7.1,2.6
		s2.6,3.9,2.6,6.4c0,2.4-0.9,4.5-2.6,6.2s-4,2.6-7,2.6c-2,0-3.8-0.4-5.3-1.3s-2.6-2-3.3-3.4S72.9,417.8,72.9,416.4z M78.2,416.3
		c0,2.6,0.4,4.5,1.1,5.7s1.8,1.8,3.2,1.8c1.5,0,2.6-0.5,3.3-1.6c0.7-1.1,1.1-2.9,1.1-5.6c0-2.4-0.3-4.3-1-5.5s-1.8-1.8-3.3-1.8
		c-1.4,0-2.5,0.6-3.2,1.7C78.6,412.1,78.2,413.9,78.2,416.3z"/>
	<path id="XMLID_140_" class="st3" d="M102.1,412.8v7.9c0,1.3,0.2,2.1,0.7,2.4c0.5,0.4,1,0.5,1.8,0.5v1.4h-6.4v-1.4
		c0.5,0,1-0.1,1.4-0.4s0.7-0.6,0.8-0.9c0.1-0.3,0.2-0.9,0.2-1.7v-8.7c0-1.7-0.8-2.6-2.5-2.6v-1.4h5.8l9.4,10.5v-6.3
		c0-1.9-0.8-2.8-2.4-2.8v-1.4h6.2v1.4c-0.4,0-0.8,0.1-1.2,0.4c-0.4,0.3-0.6,0.5-0.8,0.9c-0.1,0.4-0.2,0.9-0.2,1.6v13.2h-1.6
		L102.1,412.8z"/>
	<path id="XMLID_142_" class="st3" d="M125.2,420.4l-0.3,0.8c-0.2,0.6-0.4,1-0.4,1.3c0,0.4,0.1,0.7,0.4,0.9c0.3,0.2,0.7,0.2,1.4,0.2
		v1.4h-5.7v-1.4c1.1,0,2-0.9,2.7-2.8l5.3-13.3h1.5l5.4,13.3c0.5,1.3,1,2.1,1.4,2.4s0.8,0.4,1.2,0.4v1.4h-8.5v-1.4
		c0.8,0,1.2-0.1,1.4-0.2s0.3-0.3,0.3-0.6c0-0.2-0.1-0.5-0.2-0.8l-0.2-0.4l-0.4-1.2H125.2z M125.7,419h4.2l-2.1-5.1L125.7,419z"/>
	<path id="XMLID_145_" class="st3" d="M158,419.4l-0.1,5.7h-15.6v-1.4h0.3c0.9,0,1.4-0.2,1.7-0.5s0.4-0.9,0.4-1.6v-10.2
		c0-0.8-0.1-1.3-0.4-1.6s-0.8-0.5-1.7-0.5h-0.3v-1.4h9.2v1.4h-0.3c-0.9,0-1.4,0.2-1.7,0.5s-0.4,0.9-0.4,1.6v9.8c0,0.7,0,1.2,0.1,1.5
		c0.1,0.2,0.3,0.4,0.7,0.6s1,0.3,1.9,0.3c1.5,0,2.6-0.4,3.4-1.1c0.7-0.8,1.2-1.8,1.5-3L158,419.4L158,419.4L158,419.4z"/>
</g>
</svg>
