<?xml version="1.0" encoding="utf-8"?>
<!-- Generator: Adobe Illustrator 19.0.0, SVG Export Plug-In . SVG Version: 6.00 Build 0)  -->
<svg version="1.1" id="Capa_1" xmlns="http://www.w3.org/2000/svg" xmlns:xlink="http://www.w3.org/1999/xlink" x="0px" y="0px"
	 viewBox="0 0 710.9 141" style="enable-background:new 0 0 710.9 141;" xml:space="preserve">
<style type="text/css">
	.st0{fill:#0778BE;}
	.st1{fill:none;}
	.st2{fill:#FFFFFF;}
	.st3{fill:#ED1C24;}
	.st4{fill:#818286;}
</style>
<g id="XMLID_1_">
	<path id="XMLID_265_" class="st0" d="M633.8,72.4c0-13.7,0-27.3,0-41c0-10.3,6.8-17.2,17.2-17.3c9.7-0.1,19.3-0.2,29,0
		c9.6,0.1,16.7,7.1,16.7,16.8c0.1,27.6,0.1,55.3,0,82.9c0,10.4-7,17-17.4,17c-9.3,0-18.6,0-28,0c-10.7-0.1-17.5-6.8-17.5-17.4
		C633.8,99.7,633.8,86,633.8,72.4z M661.9,71.4c0,12.5,0,25,0,37.5c0,2.6-0.1,5.5,3.4,5.4c3.3-0.1,3.4-2.9,3.4-5.6
		c0-24.8,0-49.6,0-74.4c0-2.6,0.1-5.3-3.6-5.3c-3.9,0-3.3,3-3.3,5.5C661.9,46.8,661.9,59.1,661.9,71.4z"/>
	<path id="XMLID_268_" class="st0" d="M48.7,93.2c9.3,0,19.3-0.1,29.2-0.1c0,8.2,0.5,16.4-0.2,24.4c-0.6,7.5-7.5,13-15.3,13.2
		c-11.7,0.2-23.3,0.2-35,0.1c-9.3-0.1-15.5-6.6-15.6-15.9c-0.1-28.3-0.1-56.6,0-84.9c0-8.9,6.2-15.6,15.2-15.8
		c11.8-0.3,23.6-0.3,35.5,0c8.2,0.2,15.2,6.4,15.3,14.3c0.3,17.6,0.1,35.3,0.1,53.7c-12.2,0-23.8,0-35.9,0c0,10.2,0,23.7,0,29.7
		c0,2,1.6,2.9,3.5,2.8c1.9-0.1,3-1.5,3-3.4 M42.1,48c0,4.8,0,9.7,0,14.5c0,2.1,0.1,4.2,2.9,4.3c3.1,0.1,3.5-1.9,3.5-4.3
		c0-9.8,0-19.6,0-29.5c0-2.3-0.5-4-3.2-4c-2.7,0-3.2,1.8-3.2,4C42.1,38,42.1,43,42.1,48z"/>
</g>
<polygon id="XMLID_12_" class="st0" points="84.2,13.9 84.2,95.9 132.7,95.9 132.7,80.8 112.7,80.8 112.7,13.9 "/>
<path id="XMLID_16_" class="st0" d="M248.7,95.9h-28.3v-64c0,0-2.5-4.3-6.8,0v64h-27.3V31.8c0,0-3.3-3.8-6.8,0v64.2h-28.3V14.1h26.7
	v5.8c0,0,17.5-15,32.2,1.8c0,0,7.4-6.1,16.1-7.1c8.2-1,21.4,3.9,22.8,17.2"/>
<polygon id="XMLID_20_" class="st0" points="318.7,96.2 340.7,59.2 319.6,14.2 349.3,14.2 357,30.3 366.9,14.2 387.3,14.2 
	366.6,50.1 388.5,96.2 358.4,96.2 350.1,78.4 339.7,96.2 "/>
<rect id="XMLID_21_" x="392.6" y="13.9" class="st0" width="29.2" height="82.2"/>
<path id="XMLID_25_" class="st1" d="M467.9,54"/>
<path id="XMLID_6_" class="st0" d="M479.2,13.9c0,0,11.7,0,10.2,14.2v16.3h-27.6v-14c0,0-1.8-4.8-6.5,0v47.2c0,0,3.5,4.8,6.4,0V64.9
	h27.8v19.4c0,0-2.1,10.5-12.8,10.9h-37.4c0,0-11-1.8-11.9-14.2V27.2c0,0,0.6-12.6,15.4-13.2H479.2z"/>
<path id="XMLID_9_" class="st0" d="M543.4,13.7c0,0,14.3,1.1,15.5,13.5v68.8h-28.1v-2.5c0,0-23.7,14.5-33-3.8c0,0-7.8-22.8,1.2-32.5
	c0,0,7.8-12,31.7-8.7V31.8c0,0-0.3-2.3-3.3-2.1c-1,0-3.5,0.5-3.6,2.1v13.4h-27.9V27.5c0,0,0.7-11.7,16-13.8H543.4z"/>
<path id="XMLID_11_" class="st2" d="M523.9,61.9c0,0,0-1.9,3.1-2.1c0.9-0.1,3.1,0.5,3.1,2.1l0,17.4c0,0,0,1.9-2.7,2.1
	c-0.9,0.1-3.5-0.2-3.6-2.1V61.9z"/>
<path id="XMLID_19_" class="st2" d="M639.6,17.8"/>
<path id="XMLID_69_" class="st3" d="M260.4,13.8"/>
<path id="XMLID_53_" class="st0" d="M254.7,26.4c0,0,3.3-11.4,12.4-12.6h38.4c0,0,9.7,1.1,12.6,12.6v33.4h-35.4l0,18.8
	c0,0,0.3,1.9,3.6,1.9c0,0,2.6,0.1,3.2-1.7V65.3l28.5,0l0,19.2c0,0-1.6,9.8-12.6,11.4h-38.5c0,0-9.8-0.8-12.3-11.4V26.4z"/>
<path id="XMLID_14_" class="st2" d="M283.8,31c0,0,0-1.9,3.1-2.1c0.9-0.1,3.1,0.5,3.1,2.1l0,17.4c0,0,0,1.9-2.7,2.1
	c-0.9,0.1-3.5-0.2-3.6-2.1V31z"/>
<path id="XMLID_46_" class="st0" d="M564.8,95.9V14.5h29.1v2.4c0,0,30.4-14.4,33.9,15v64H599V30.5c0,0-0.8-2.3-3.1-2.3
	c0,0-2.4,0.4-3,2.4v65.2H564.8z"/>
<g id="XMLID_101_">
	<path id="XMLID_102_" class="st4" d="M159,122.1v-1.4h8v1.4c-0.6,0.1-1.1,0.3-1.3,0.6c-0.2,0.3-0.3,0.8-0.3,1.6v3.6
		c-0.3,0-0.5,0-0.7,0c-0.8,0-2.2,0.2-4.2,0.6c-1.4,0.3-2.6,0.5-3.6,0.5c-2.6,0-4.7-0.9-6.3-2.6c-1.6-1.7-2.4-3.8-2.4-6.1
		c0-2.5,0.8-4.6,2.5-6.4c1.7-1.8,3.8-2.7,6.3-2.7c2,0,3.8,0.7,5.4,2c0.3-0.6,0.4-1.2,0.5-1.8h1.4l0.2,6h-1.4
		c-0.9-2.9-2.6-4.4-5.1-4.4c-1.5,0-2.6,0.6-3.4,1.7c-0.8,1.1-1.2,3-1.2,5.6c0,1.8,0.1,3.2,0.3,4.2c0.2,1,0.7,1.7,1.3,2.2
		c0.7,0.5,1.5,0.8,2.6,0.8c0.9,0,1.7-0.2,2.3-0.6s0.9-1.2,0.9-2.4v-0.6C161,122.8,160.4,122.2,159,122.1z"/>
	<path id="XMLID_104_" class="st4" d="M179.1,121.1v4.1c0,0.8,0.1,1.3,0.4,1.6s0.8,0.5,1.7,0.5h0.3v1.4h-9.2v-1.4h0.3
		c0.9,0,1.4-0.2,1.7-0.5c0.3-0.3,0.4-0.9,0.4-1.6V115c0-0.8-0.1-1.3-0.4-1.6c-0.3-0.3-0.8-0.5-1.7-0.5h-0.3v-1.4l6.9,0l1.5,0
		c1.5,0,2.6,0.1,3.3,0.2c0.7,0.1,1.4,0.3,2.1,0.7c0.7,0.4,1.2,0.9,1.6,1.6s0.6,1.4,0.6,2.1c0,2-1.2,3.4-3.5,4.2
		c0.6,0.4,1.6,1.6,2.9,3.6c1,1.6,1.7,2.5,2.2,2.9s0.9,0.5,1.4,0.5v1.4h-5.4c-0.5-0.6-1.4-2.1-2.7-4.4c-0.7-1.2-1.1-2-1.4-2.3
		s-0.5-0.6-0.8-0.7C180.7,121.2,180.1,121.1,179.1,121.1z M179.1,119.6c1.4,0,2.4-0.1,2.9-0.3s0.9-0.5,1.2-1c0.3-0.5,0.4-1.2,0.4-2
		c0-1.2-0.3-2-0.9-2.5c-0.6-0.5-1.5-0.7-2.9-0.7c-0.2,0-0.4,0-0.7,0V119.6z"/>
	<path id="XMLID_107_" class="st4" d="M199.4,124l-0.3,0.8c-0.2,0.6-0.4,1-0.4,1.3c0,0.4,0.1,0.7,0.4,0.9c0.3,0.2,0.7,0.2,1.4,0.2
		v1.4h-5.7v-1.4c1.1,0,2-0.9,2.7-2.8l5.3-13.3h1.5l5.4,13.3c0.5,1.3,1,2.1,1.4,2.4c0.4,0.3,0.8,0.4,1.2,0.4v1.4h-8.5v-1.4
		c0.8,0,1.2-0.1,1.4-0.2c0.2-0.1,0.3-0.3,0.3-0.6c0-0.2-0.1-0.5-0.2-0.8l-0.2-0.4l-0.5-1.3H199.4z M199.9,122.6h4.2l-2.1-5.1
		L199.9,122.6z"/>
	<path id="XMLID_110_" class="st4" d="M220.6,116.4v7.9c0,1.3,0.2,2.1,0.7,2.4c0.5,0.4,1,0.5,1.8,0.5v1.4h-6.4v-1.4
		c0.5,0,1-0.1,1.4-0.4c0.4-0.3,0.7-0.6,0.8-0.9c0.1-0.3,0.2-0.9,0.2-1.7v-8.7c0-1.7-0.8-2.6-2.5-2.6v-1.4h5.8l9.4,10.5v-6.3
		c0-1.9-0.8-2.8-2.4-2.8v-1.4h6.2v1.4c-0.4,0-0.8,0.1-1.2,0.4s-0.6,0.5-0.8,0.9c-0.1,0.4-0.2,0.9-0.2,1.6v13.2h-1.6L220.6,116.4z"/>
	<path id="XMLID_112_" class="st4" d="M251.8,128.7v-1.4c0.9,0,1.5-0.1,1.8-0.4s0.4-0.8,0.4-1.7V115c0-0.8-0.1-1.4-0.4-1.7
		c-0.3-0.3-0.9-0.4-1.8-0.4v-1.4l2.1-0.1c2.1-0.1,3.7-0.1,4.9-0.1c2,0,3.6,0.1,4.8,0.3c1.2,0.2,2.4,0.7,3.5,1.5
		c1.1,0.8,1.9,1.8,2.5,3c0.6,1.2,0.9,2.6,0.9,4.1c0,1.5-0.3,2.9-0.9,4c-0.6,1.2-1.5,2.1-2.5,2.8s-2.2,1.1-3.3,1.3
		c-1.1,0.2-3.1,0.3-5.7,0.3H251.8z M258.5,112.9v11.8c0,0.8,0,1.3,0.1,1.5c0.1,0.3,0.3,0.5,0.6,0.7s0.8,0.3,1.4,0.3
		c1.6,0,2.8-0.6,3.6-1.7c0.8-1.2,1.2-2.9,1.2-5.2c0-1.9-0.3-3.4-0.9-4.5s-1.3-1.9-2.3-2.3C261.3,113.1,260,112.9,258.5,112.9z"/>
	<path id="XMLID_115_" class="st4" d="M276.6,112.9v-1.4h9.1v1.4h-0.3c-0.9,0-1.4,0.2-1.7,0.5c-0.3,0.3-0.4,0.9-0.4,1.6v10.1
		c0,0.8,0.1,1.3,0.4,1.6c0.3,0.3,0.8,0.5,1.6,0.5h0.3v1.4h-9.1v-1.4c0.9,0,1.5-0.1,1.8-0.4c0.3-0.3,0.4-0.8,0.4-1.7V115
		c0-0.8-0.1-1.4-0.4-1.7C278.2,113.1,277.6,112.9,276.6,112.9z"/>
	<path id="XMLID_117_" class="st4" d="M294.6,124l-0.3,0.8c-0.2,0.6-0.4,1-0.4,1.3c0,0.4,0.1,0.7,0.4,0.9c0.3,0.2,0.7,0.2,1.4,0.2
		v1.4h-5.7v-1.4c1.1,0,2-0.9,2.7-2.8l5.3-13.3h1.5l5.4,13.3c0.5,1.3,1,2.1,1.4,2.4c0.4,0.3,0.8,0.4,1.2,0.4v1.4h-8.5v-1.4
		c0.8,0,1.2-0.1,1.4-0.2c0.2-0.1,0.3-0.3,0.3-0.6c0-0.2-0.1-0.5-0.2-0.8l-0.2-0.4l-0.5-1.3H294.6z M295.2,122.6h4.2l-2.1-5.1
		L295.2,122.6z"/>
	<path id="XMLID_120_" class="st4" d="M318.6,121.1v4.1c0,0.8,0.1,1.3,0.4,1.6s0.8,0.5,1.7,0.5h0.3v1.4h-9.2v-1.4h0.3
		c0.9,0,1.4-0.2,1.7-0.5c0.3-0.3,0.4-0.9,0.4-1.6V115c0-0.8-0.1-1.3-0.4-1.6c-0.3-0.3-0.8-0.5-1.7-0.5h-0.3v-1.4l6.9,0l1.5,0
		c1.5,0,2.6,0.1,3.3,0.2c0.7,0.1,1.4,0.3,2.1,0.7c0.7,0.4,1.2,0.9,1.6,1.6c0.4,0.7,0.6,1.4,0.6,2.1c0,2-1.2,3.4-3.5,4.2
		c0.6,0.4,1.6,1.6,2.9,3.6c1,1.6,1.7,2.5,2.2,2.9s0.9,0.5,1.4,0.5v1.4h-5.4c-0.5-0.6-1.4-2.1-2.7-4.4c-0.7-1.2-1.1-2-1.4-2.3
		s-0.5-0.6-0.8-0.7C320.2,121.2,319.6,121.1,318.6,121.1z M318.6,119.6c1.4,0,2.4-0.1,2.9-0.3s0.9-0.5,1.2-1c0.3-0.5,0.4-1.2,0.4-2
		c0-1.2-0.3-2-0.9-2.5c-0.6-0.5-1.5-0.7-2.9-0.7c-0.2,0-0.4,0-0.7,0V119.6z"/>
	<path id="XMLID_123_" class="st4" d="M335.5,112.9v-1.4h9.1v1.4h-0.3c-0.9,0-1.4,0.2-1.7,0.5s-0.4,0.9-0.4,1.6v10.1
		c0,0.8,0.1,1.3,0.4,1.6s0.8,0.5,1.6,0.5h0.3v1.4h-9.1v-1.4c0.9,0,1.5-0.1,1.8-0.4c0.3-0.3,0.4-0.8,0.4-1.7V115
		c0-0.8-0.1-1.4-0.4-1.7C337.1,113.1,336.4,112.9,335.5,112.9z"/>
	<path id="XMLID_125_" class="st4" d="M350.7,120c0-1.5,0.4-3,1.3-4.5s2-2.6,3.5-3.3s3-1.1,4.7-1.1c3,0,5.4,0.9,7.1,2.6
		c1.7,1.7,2.6,3.9,2.6,6.4c0,2.4-0.9,4.5-2.6,6.2s-4,2.6-7,2.6c-2,0-3.8-0.4-5.3-1.3c-1.5-0.9-2.6-2-3.3-3.4S350.7,121.4,350.7,120z
		 M356,119.9c0,2.6,0.4,4.5,1.1,5.7c0.7,1.2,1.8,1.8,3.2,1.8c1.5,0,2.6-0.5,3.3-1.6c0.7-1.1,1.1-2.9,1.1-5.6c0-2.4-0.3-4.3-1-5.5
		s-1.8-1.8-3.3-1.8c-1.4,0-2.5,0.6-3.2,1.7C356.3,115.7,356,117.5,356,119.9z"/>
	<path id="XMLID_128_" class="st4" d="M393.3,121.1v4.1c0,0.8,0.1,1.3,0.4,1.6c0.3,0.3,0.8,0.5,1.7,0.5h0.3v1.4h-9.2v-1.4h0.3
		c0.9,0,1.4-0.2,1.7-0.5c0.3-0.3,0.4-0.9,0.4-1.6V115c0-0.8-0.1-1.3-0.4-1.6s-0.8-0.5-1.7-0.5h-0.3v-1.4l6.9,0l1.5,0
		c1.5,0,2.6,0.1,3.3,0.2c0.7,0.1,1.4,0.3,2.1,0.7c0.7,0.4,1.2,0.9,1.6,1.6s0.6,1.4,0.6,2.1c0,2-1.2,3.4-3.5,4.2
		c0.6,0.4,1.6,1.6,2.9,3.6c1,1.6,1.7,2.5,2.2,2.9s0.9,0.5,1.4,0.5v1.4h-5.4c-0.5-0.6-1.4-2.1-2.7-4.4c-0.7-1.2-1.1-2-1.4-2.3
		c-0.3-0.3-0.5-0.6-0.8-0.7S394.2,121.1,393.3,121.1z M393.3,119.6c1.4,0,2.4-0.1,2.9-0.3c0.5-0.2,0.9-0.5,1.2-1
		c0.3-0.5,0.4-1.2,0.4-2c0-1.2-0.3-2-0.9-2.5c-0.6-0.5-1.5-0.7-2.9-0.7c-0.2,0-0.4,0-0.7,0V119.6z"/>
	<path id="XMLID_131_" class="st4" d="M416.9,120.5v4.2c0,0.8,0,1.3,0.1,1.6c0.1,0.2,0.3,0.5,0.7,0.6c0.4,0.2,1,0.2,1.8,0.2
		c1.1,0,1.9-0.1,2.5-0.4c0.5-0.3,1-0.8,1.4-1.5c0.4-0.7,0.7-1.4,0.9-2.2h1.4l-0.1,5.6H410v-1.4h0.3c0.9,0,1.4-0.2,1.7-0.5
		c0.3-0.3,0.4-0.9,0.4-1.6V115c0-0.8-0.1-1.3-0.4-1.6s-0.8-0.5-1.6-0.5H410v-1.4h14.6l0.3,4.4h-1.4c-0.3-0.8-0.5-1.4-0.8-1.9
		c-0.3-0.5-0.6-0.8-0.9-0.9c-0.3-0.1-0.8-0.2-1.6-0.2h-3.2v5.9h1.6c0.8,0,1.3-0.1,1.5-0.4c0.2-0.3,0.4-0.9,0.4-1.7h1.4v5.8h-1.4
		c0-0.1,0-0.2,0-0.2c0-0.5-0.1-0.9-0.3-1.3c-0.2-0.4-0.7-0.6-1.6-0.6H416.9z"/>
	<path id="XMLID_133_" class="st4" d="M442.8,122.1v-1.4h8v1.4c-0.6,0.1-1.1,0.3-1.3,0.6c-0.2,0.3-0.3,0.8-0.3,1.6v3.6
		c-0.3,0-0.5,0-0.7,0c-0.8,0-2.2,0.2-4.2,0.6c-1.4,0.3-2.6,0.5-3.6,0.5c-2.6,0-4.7-0.9-6.3-2.6c-1.6-1.7-2.4-3.8-2.4-6.1
		c0-2.5,0.8-4.6,2.5-6.4s3.8-2.7,6.3-2.7c2,0,3.8,0.7,5.4,2c0.3-0.6,0.4-1.2,0.5-1.8h1.4l0.2,6H447c-0.9-2.9-2.6-4.4-5.1-4.4
		c-1.5,0-2.6,0.6-3.4,1.7c-0.8,1.1-1.2,3-1.2,5.6c0,1.8,0.1,3.2,0.3,4.2c0.2,1,0.7,1.7,1.3,2.2c0.7,0.5,1.5,0.8,2.6,0.8
		c0.9,0,1.7-0.2,2.3-0.6c0.6-0.4,0.9-1.2,0.9-2.4v-0.6C444.8,122.8,444.1,122.2,442.8,122.1z"/>
	<path id="XMLID_135_" class="st4" d="M456.2,112.9v-1.4h9.1v1.4H465c-0.9,0-1.4,0.2-1.7,0.5s-0.4,0.9-0.4,1.6v10.1
		c0,0.8,0.1,1.3,0.4,1.6s0.8,0.5,1.6,0.5h0.3v1.4h-9.1v-1.4c0.9,0,1.5-0.1,1.8-0.4c0.3-0.3,0.4-0.8,0.4-1.7V115
		c0-0.8-0.1-1.4-0.4-1.7S457.2,112.9,456.2,112.9z"/>
	<path id="XMLID_137_" class="st4" d="M471.4,120c0-1.5,0.4-3,1.3-4.5s2-2.6,3.5-3.3s3-1.1,4.7-1.1c3,0,5.4,0.9,7.1,2.6
		s2.6,3.9,2.6,6.4c0,2.4-0.9,4.5-2.6,6.2s-4,2.6-7,2.6c-2,0-3.8-0.4-5.3-1.3c-1.5-0.9-2.6-2-3.3-3.4S471.4,121.4,471.4,120z
		 M476.7,119.9c0,2.6,0.4,4.5,1.1,5.7s1.8,1.8,3.2,1.8c1.5,0,2.6-0.5,3.3-1.6c0.7-1.1,1.1-2.9,1.1-5.6c0-2.4-0.3-4.3-1-5.5
		s-1.8-1.8-3.3-1.8c-1.4,0-2.5,0.6-3.2,1.7C477.1,115.7,476.7,117.5,476.7,119.9z"/>
	<path id="XMLID_140_" class="st4" d="M500.6,116.4v7.9c0,1.3,0.2,2.1,0.7,2.4c0.5,0.4,1,0.5,1.8,0.5v1.4h-6.4v-1.4
		c0.5,0,1-0.1,1.4-0.4c0.4-0.3,0.7-0.6,0.8-0.9s0.2-0.9,0.2-1.7v-8.7c0-1.7-0.8-2.6-2.5-2.6v-1.4h5.8l9.4,10.5v-6.3
		c0-1.9-0.8-2.8-2.4-2.8v-1.4h6.2v1.4c-0.4,0-0.8,0.1-1.2,0.4s-0.6,0.5-0.8,0.9c-0.1,0.4-0.2,0.9-0.2,1.6v13.2h-1.6L500.6,116.4z"/>
	<path id="XMLID_142_" class="st4" d="M523.7,124l-0.3,0.8c-0.2,0.6-0.4,1-0.4,1.3c0,0.4,0.1,0.7,0.4,0.9c0.3,0.2,0.7,0.2,1.4,0.2
		v1.4h-5.7v-1.4c1.1,0,2-0.9,2.7-2.8l5.3-13.3h1.5l5.4,13.3c0.5,1.3,1,2.1,1.4,2.4c0.4,0.3,0.8,0.4,1.2,0.4v1.4h-8.5v-1.4
		c0.8,0,1.2-0.1,1.4-0.2s0.3-0.3,0.3-0.6c0-0.2-0.1-0.5-0.2-0.8l-0.2-0.4L529,124H523.7z M524.2,122.6h4.2l-2.1-5.1L524.2,122.6z"/>
	<path id="XMLID_145_" class="st4" d="M556.5,123l-0.1,5.7h-15.6v-1.4h0.3c0.9,0,1.4-0.2,1.7-0.5c0.3-0.3,0.4-0.9,0.4-1.6V115
		c0-0.8-0.1-1.3-0.4-1.6s-0.8-0.5-1.7-0.5h-0.3v-1.4h9.2v1.4h-0.3c-0.9,0-1.4,0.2-1.7,0.5s-0.4,0.9-0.4,1.6v9.8c0,0.7,0,1.2,0.1,1.5
		c0.1,0.2,0.3,0.4,0.7,0.6c0.4,0.2,1,0.3,1.9,0.3c1.5,0,2.6-0.4,3.4-1.1c0.7-0.8,1.2-1.8,1.5-3H556.5z"/>
</g>
</svg>
